HIERARCHY
ROOT Hips
{
	OFFSET 0.000000 0.000000 0.000000
	CHANNELS 6 Xposition Yposition Zposition Xrotation Yrotation Zrotation
	JOINT LeftUpLeg_virtual
	{
		OFFSET 0.000000 0.000000 0.000000
		CHANNELS 3 Xrotation Yrotation Zrotation
		JOINT LeftUpLeg
		{
			OFFSET 10.205400 -3.823500 0.155100
			CHANNELS 3 Xrotation Yrotation Zrotation
			JOINT LeftLeg
			{
				OFFSET 0.708757 -12.982077 0.567790
				CHANNELS 3 Xrotation Yrotation Zrotation
				JOINT LeftFoot
				{
					OFFSET -0.708756 -10.717838 -2.184338
					CHANNELS 3 Xrotation Yrotation Zrotation
					JOINT LeftToeBase
					{
						OFFSET 0.108149 -7.191104 7.560241
						CHANNELS 3 Xrotation Yrotation Zrotation
						JOINT LeftToe_End
						{
							OFFSET 0.070230 0.081724 4.490308
							CHANNELS 3 Xrotation Yrotation Zrotation
							End Site
							{
								OFFSET 0 0 0
							}
						}
					}
				}
			}
		}
	}
	JOINT RightUpLeg_virtual
	{
		OFFSET 0.000000 0.000000 0.000000
		CHANNELS 3 Xrotation Yrotation Zrotation
		JOINT RightUpLeg
		{
			OFFSET -10.205400 -3.823500 0.005500
			CHANNELS 3 Xrotation Yrotation Zrotation
			JOINT RightLeg
			{
				OFFSET -0.708756 -12.982134 0.610632
				CHANNELS 3 Xrotation Yrotation Zrotation
				JOINT RightFoot
				{
					OFFSET 0.708754 -10.717769 -1.945823
					CHANNELS 3 Xrotation Yrotation Zrotation
					JOINT RightToeBase
					{
						OFFSET -0.108140 -7.191069 7.372968
						CHANNELS 3 Xrotation Yrotation Zrotation
						JOINT RightToe_End
						{
							OFFSET -0.070227 0.081735 4.479403
							CHANNELS 3 Xrotation Yrotation Zrotation
							End Site
							{
								OFFSET 0 0 0
							}
						}
					}
				}
			}
		}
	}
	JOINT Spine_virtual
	{
		OFFSET 0.000000 0.000000 0.000000
		CHANNELS 3 Xrotation Yrotation Zrotation
		JOINT Spine
		{
			OFFSET 0.000000 6.876099 0.125700
			CHANNELS 3 Xrotation Yrotation Zrotation
			JOINT Spine1
			{
				OFFSET 0.000000 5.730043 0.104720
				CHANNELS 3 Xrotation Yrotation Zrotation
				JOINT Spine1_split
				{
					OFFSET 0.000000 5.730043 0.104720
					CHANNELS 3 Xrotation Yrotation Zrotation
					JOINT Spine2
					{
						OFFSET 0.000000 5.730043 0.104720
						CHANNELS 3 Xrotation Yrotation Zrotation
						JOINT Neck_virtual
						{
							OFFSET 0.000000 0.000000 0.000000
							CHANNELS 3 Xrotation Yrotation Zrotation
							JOINT Neck
							{
								OFFSET 0.000000 10.314075 0.188496
								CHANNELS 3 Xrotation Yrotation Zrotation
								JOINT Head
								{
									OFFSET 0.000000 7.643700 -2.377400
									CHANNELS 3 Xrotation Yrotation Zrotation
									JOINT HeadTop_End
									{
										OFFSET 0.000000 43.788605 -13.619600
										CHANNELS 3 Xrotation Yrotation Zrotation
										End Site
										{
											OFFSET 0 0 0
										}
									}
								}
							}
						}
						JOINT LeftShoulder_virtual
						{
							OFFSET 0.000000 0.000000 0.000000
							CHANNELS 3 Xrotation Yrotation Zrotation
							JOINT LeftShoulder
							{
								OFFSET 2.196100 4.412489 0.087492
								CHANNELS 3 Xrotation Yrotation Zrotation
								JOINT LeftShoulder_split
								{
									OFFSET 2.196100 4.412489 0.087492
									CHANNELS 3 Xrotation Yrotation Zrotation
									JOINT LeftArm
									{
										OFFSET 8.771219 -2.981674 -0.026999
										CHANNELS 3 Xrotation Yrotation Zrotation
										JOINT LeftForeArm
										{
											OFFSET 8.512804 0.000000 -0.000000
											CHANNELS 3 Xrotation Yrotation Zrotation
											JOINT LeftHand
											{
												OFFSET 18.484802 0.000000 -0.000000
												CHANNELS 3 Xrotation Yrotation Zrotation
												End Site
												{
													OFFSET 0 0 0
												}
											}
										}
									}
								}
							}
						}
						JOINT RightShoulder_virtual
						{
							OFFSET 0.000000 0.000000 0.000000
							CHANNELS 3 Xrotation Yrotation Zrotation
							JOINT RightShoulder
							{
								OFFSET -2.196100 4.412496 0.070690
								CHANNELS 3 Xrotation Yrotation Zrotation
								JOINT RightShoulder_split
								{
									OFFSET -2.196100 4.412496 0.070690
									CHANNELS 3 Xrotation Yrotation Zrotation
									JOINT RightArm
									{
										OFFSET -8.771282 -2.981682 -0.094208
										CHANNELS 3 Xrotation Yrotation Zrotation
										JOINT RightForeArm
										{
											OFFSET -8.494598 0.000000 0.000000
											CHANNELS 3 Xrotation Yrotation Zrotation
											JOINT RightHand
											{
												OFFSET -18.483803 0.000000 0.000001
												CHANNELS 3 Xrotation Yrotation Zrotation
												End Site
												{
													OFFSET 0 0 0
												}
											}
										}
									}
								}
							}
						}
					}
				}
			}
		}
	}
}
MOTION
Frames: 6
Frame Time: 0.03333333
0.440124 27.016163 -0.594450 0.000000 0.000000 0.000000 -4.036486 -50.140330 -0.182315 -33.065779 8.419198 22.147682 62.260043 -7.065032 6.526197 -28.542514 -5.491939 -14.898581 -8.222764 -0.093980 -1.525391 0.000000 0.000000 0.000000 -5.261405 -47.768133 0.430047 -13.645601 -12.096668 -34.343007 55.391376 0.524248 -5.363418 -35.491855 -15.640476 27.058843 1.161508 0.147899 -2.111443 0.000000 0.000000 0.000000 -4.152179 -48.209521 0.129056 9.865531 7.362211 -1.213714 2.327116 1.766193 -1.282256 0.064783 -0.955033 0.695738 0.000000 0.000000 0.000000 2.291189 1.417002 -0.766728 -0.844043 13.443038 4.253044 7.795169 21.761959 -6.187367 0.000000 0.000000 0.000000 3.542869 1.042717 -0.929560 1.573038 3.777166 -5.938769 -3.066057 -1.433764 -1.693455 -51.320727 3.104741 -50.014856 179.241007 -71.594548 -178.726038 0.000000 0.000000 0.000000 3.485649 1.462259 -0.594267 3.800628 11.274789 -6.065273 -2.002951 -2.649680 -0.245029 -48.815396 29.777207 86.284755 178.618176 65.479924 -178.871111 0.000000 0.000000 0.000000 
0.545618 26.911680 -0.524679 0.000000 0.000000 0.000000 -4.453012 -50.411553 -0.364152 -33.411585 7.517024 22.028308 62.923773 -6.260207 6.192184 -27.931208 -4.996158 -14.795064 -7.948986 0.035718 -2.174532 0.000000 0.000000 0.000000 -5.220387 -47.440161 0.412087 -13.752187 -12.001990 -34.580421 55.895522 0.950388 -5.434316 -36.220701 -15.312859 27.272554 1.678754 0.172888 -2.156438 0.000000 0.000000 0.000000 -4.512511 -48.054387 -0.063970 10.102503 7.371985 -1.171436 2.490208 1.632895 -1.155235 0.525559 -1.262800 0.935499 0.000000 0.000000 0.000000 2.255334 1.275881 -0.628681 -0.674443 13.388059 4.045700 8.245007 21.669977 -6.078862 0.000000 0.000000 0.000000 3.492490 0.968077 -0.887995 1.580656 3.891000 -6.331665 -2.932380 -1.296402 -1.460264 -51.224455 3.240713 -50.129641 179.386340 -71.867933 -178.680658 0.000000 0.000000 0.000000 3.547040 1.376308 -0.556214 3.934834 11.711353 -6.042689 -2.348795 -3.251703 -0.299171 -50.527325 29.022201 86.518833 178.962199 65.539312 -179.388280 0.000000 0.000000 0.000000 
0.618364 26.707701 -0.377733 0.000000 0.000000 0.000000 -5.144717 -50.919094 -0.731684 -34.522085 6.262760 22.004860 64.730652 -5.011617 5.718215 -26.249353 -4.528139 -14.533980 -7.799044 0.101576 -2.339016 0.000000 0.000000 0.000000 -5.510393 -47.177278 0.077489 -14.273140 -12.036678 -34.730180 57.217208 1.291082 -5.569461 -36.985006 -14.941467 27.524339 1.511522 0.167131 -1.998726 0.000000 0.000000 0.000000 -5.288827 -48.091707 -0.580010 10.377663 7.341164 -1.005973 2.587544 1.436997 -0.961973 0.904887 -1.199279 1.015627 0.000000 0.000000 0.000000 2.204421 1.071152 -0.497297 -0.712422 13.282955 3.760995 8.732767 21.529077 -5.860634 0.000000 0.000000 0.000000 3.447342 0.805701 -0.783526 1.597525 3.939434 -6.941696 -2.598000 -1.271150 -1.151426 -51.278478 3.667579 -50.439062 179.699886 -72.754758 -178.468677 0.000000 0.000000 0.000000 3.547950 1.184299 -0.460476 3.978345 11.952758 -5.987481 -2.822573 -3.425536 -0.221110 -52.016293 27.428884 85.928103 179.370330 66.122706 179.896295 0.000000 0.000000 0.000000 
0.695605 26.444637 -0.244299 0.000000 0.000000 0.000000 -6.084734 -51.484245 -1.232514 -36.056869 4.609013 21.899050 67.193885 -3.978042 5.394920 -23.698236 -4.537074 -14.849031 -9.067593 0.048438 -1.616983 0.000000 0.000000 0.000000 -6.192132 -47.173210 -0.430083 -15.207495 -12.140225 -34.953049 59.101306 1.556640 -5.795783 -37.939925 -14.536388 27.567005 0.959631 0.112093 -1.612221 0.000000 0.000000 0.000000 -6.363520 -48.450094 -1.302210 10.644258 7.314989 -0.751631 2.568429 1.270997 -0.768398 1.005912 -0.747661 0.832169 0.000000 0.000000 0.000000 2.166395 0.882116 -0.417156 -0.957384 13.123407 3.442905 9.107331 21.319017 -5.592417 0.000000 0.000000 0.000000 3.388711 0.643226 -0.609131 1.610393 3.971927 -7.578088 -2.253137 -1.491905 -0.791033 -51.407282 4.118679 -50.860068 -179.934353 -73.543659 -178.207422 0.000000 0.000000 0.000000 3.461280 0.959382 -0.341801 3.928630 12.033168 -6.003298 -3.448790 -3.082815 0.182131 -52.571512 25.563035 84.748605 179.623142 66.950027 179.293340 0.000000 0.000000 0.000000 
0.818739 26.161570 -0.110104 0.000000 0.000000 0.000000 -7.301495 -51.995464 -1.831437 -37.319863 2.782254 21.516185 69.698986 -3.602807 5.297917 -21.093236 -5.464682 -15.916192 -12.354440 -0.226102 -0.082589 0.000000 0.000000 0.000000 -7.287966 -47.535951 -1.009858 -16.516859 -12.191065 -35.370637 61.424485 1.834327 -6.107296 -38.988909 -13.983079 27.366679 0.678875 0.012119 -1.069388 0.000000 0.000000 0.000000 -7.709454 -49.096001 -2.115466 10.892019 7.321435 -0.455584 2.460189 1.189497 -0.618297 0.758640 -0.184037 0.599910 0.000000 0.000000 0.000000 2.180041 0.785702 -0.393727 -1.313062 12.962532 3.143201 9.287875 21.116935 -5.368734 0.000000 0.000000 0.000000 3.325218 0.565994 -0.379857 1.629641 4.047569 -8.168418 -1.785670 -1.665977 -0.529666 -51.547277 4.365760 -51.307712 -179.737138 -73.829482 -178.140418 0.000000 0.000000 0.000000 3.317415 0.766593 -0.257352 3.849286 12.050097 -6.199265 -4.081247 -2.152055 0.629853 -52.079294 23.669650 83.209237 179.624440 67.669498 179.019012 0.000000 0.000000 0.000000 
0.991674 25.900354 0.019289 0.000000 0.000000 0.000000 -8.656271 -52.395553 -2.462245 -38.213993 1.021951 20.967559 72.258067 -4.021292 5.375889 -18.968561 -7.247488 -17.758038 -16.124796 -0.651007 1.377355 0.000000 0.000000 0.000000 -8.652396 -48.343799 -1.615557 -18.174592 -12.076543 -36.072247 64.079182 2.212371 -6.439189 -39.611720 -13.189044 27.234701 0.602727 -0.077987 -0.596726 0.000000 0.000000 0.000000 -9.056568 -49.933170 -2.860450 11.085843 7.372973 -0.119374 2.337601 1.192376 -0.522130 0.403956 0.307882 0.358056 0.000000 0.000000 0.000000 2.270198 0.827020 -0.412658 -1.638517 12.858241 2.837274 9.229076 21.081855 -5.292312 0.000000 0.000000 0.000000 3.262936 0.614340 -0.130664 1.659289 4.120957 -8.682663 -1.365730 -1.879577 -0.271716 -51.573304 4.260079 -51.617287 -179.832925 -73.495171 -178.376223 0.000000 0.000000 0.000000 3.178925 0.667233 -0.236468 3.778234 12.131987 -6.637121 -4.509836 -0.988066 1.126337 -50.861417 22.302273 81.732564 179.329267 67.849323 179.168429 0.000000 0.000000 0.000000 
